<svg class="main-svg" xmlns="http://www.w3.org/2000/svg" xmlns:xlink="http://www.w3.org/1999/xlink" width="320" height="200" style="" viewBox="0 0 320 200"><rect x="0" y="0" width="320" height="200" style="fill: rgb(0, 0, 0); fill-opacity: 0;"/><defs id="defs-365749"><g class="clips"/><g class="gradients"/></defs><g class="bglayer"/><g class="layer-below"><g class="imagelayer"/><g class="shapelayer"/></g><g class="cartesianlayer"/><g class="polarlayer"/><g class="ternarylayer"/><g class="geolayer"/><g class="funnelarealayer"/><g class="pielayer"/><g class="treemaplayer"/><g class="sunburstlayer"/><g class="glimages"/><defs id="topdefs-365749"><g class="clips"/></defs><g class="indicatorlayer"><g class="trace"><g class="numbers" transform="translate(160,181.76381096525216) scale(0.494016961784312)"><text text-anchor="middle" class="number" x="0" y="0" style="font-family: 'Open Sans', verdana, arial, sans-serif; font-size: 80px; fill: rgb(68, 68, 68); fill-opacity: 1; white-space: pre;">25.3k</text></g><g class="angular" transform="translate(160,190)"><g class="bg-arc"><path d="M-110,-1.3471114790620885e-14A110,110 0 0,1 110,0L82.5,0A82.5,82.5 0 0,0 -82.5,-1.0103336092965664e-14Z" style="stroke: rgb(128, 128, 128); stroke-opacity: 1; fill: rgb(255, 255, 255); fill-opacity: 1; stroke-width: 0;"/></g><g class="bg-arc"><path d="M-110,-1.3471114790620885e-14A110,110 0 0,1 110,0L82.5,0A82.5,82.5 0 0,0 -82.5,-1.0103336092965664e-14Z" style="stroke: rgb(68, 68, 68); stroke-opacity: 1; fill: rgb(255, 255, 255); fill-opacity: 1; stroke-width: 0;"/></g><g class="value-arc"><path d="M-103.125,-1.262917011620708e-14A103.125,103.125 0 0,1 94.94980891649058,-40.24051952599425L82.28983439429184,-34.875116922528356A89.375,89.375 0 0,0 -89.375,-1.094528076737947e-14Z" style="stroke: rgb(68, 68, 68); stroke-opacity: 1; fill: rgb(23, 49, 9); fill-opacity: 1; stroke-width: 0;"/></g><g class="gauge-outline"><path d="M-110,-1.3471114790620885e-14A110,110 0 0,1 110,0L82.5,0A82.5,82.5 0 0,0 -82.5,-1.0103336092965664e-14Z" style="stroke: rgb(128, 128, 128); stroke-opacity: 1; fill: rgb(0, 0, 0); fill-opacity: 0; stroke-width: 1;"/></g></g><g class="angularaxis crisp"><path class="xangularaxistick ticks crisp" d="M0.5,0h5" transform="translate(50,190)rotate(-180)" style="stroke: rgb(0, 100, 0); stroke-opacity: 1; stroke-width: 1px;"/><path class="xangularaxistick ticks crisp" d="M0.5,0h5" transform="translate(108.427903046827,92.83869692180676)rotate(-117.95884603453625)" style="stroke: rgb(0, 100, 0); stroke-opacity: 1; stroke-width: 1px;"/><path class="xangularaxistick ticks crisp" d="M0.5,0h5" transform="translate(221.64216028822773,98.89432468281441)rotate(-55.91769206907248)" style="stroke: rgb(0, 100, 0); stroke-opacity: 1; stroke-width: 1px;"/><g class="xangularaxistick"><text text-anchor="end" x="-7.9" y="4.199999999999998" transform="translate(50,190)" style="font-family: 'Open Sans', verdana, arial, sans-serif; font-size: 12px; fill: rgb(68, 68, 68); fill-opacity: 1; white-space: pre;">0</text></g><g class="xangularaxistick"><text text-anchor="end" x="-3.703814235727879" y="-7.128714677291489" transform="translate(108.427903046827,92.83869692180676)" style="font-family: 'Open Sans', verdana, arial, sans-serif; font-size: 12px; fill: rgb(68, 68, 68); fill-opacity: 1; white-space: pre;">10k</text></g><g class="xangularaxistick"><text text-anchor="start" x="4.427027875245447" y="-6.177194386876864" transform="translate(221.64216028822773,98.89432468281441)" style="font-family: 'Open Sans', verdana, arial, sans-serif; font-size: 12px; fill: rgb(68, 68, 68); fill-opacity: 1; white-space: pre;">20k</text></g></g><text class="title" text-anchor="middle" x="0" y="0" style="font-family: 'Open Sans', verdana, arial, sans-serif; font-size: 16px; fill: rgb(68, 68, 68); fill-opacity: 1; white-space: pre;" transform="translate(160,44.556640625)"><tspan class="line" dy="0em" x="0" y="0"><tspan style="font-weight:bold">Number of publications </tspan></tspan><tspan class="line" dy="1.3em" x="0" y="0"><tspan style="font-weight:bold">injested</tspan></tspan></text></g></g><g class="layer-above"><g class="imagelayer"/><g class="shapelayer"/></g><g class="infolayer"><g class="g-gtitle"/></g></svg>